# xmcd
#
# Track frame offsets:
#       150
#       12075
#       30760
#       44569
#       55181
#       67499
#       85171
#       96382
#       109341
#       129252
#       141330
#       150538
#
# Disc length: 2359 seconds
#
# Revision: 0
# Processed by: cddbd v1.5.2PL0 Copyright (c) Steve Scherf et al.
# Submitted via: CD-DA_X-Tractor v0.24
#
DISCID=a009350c
DTITLE=Leo Johnson - Coloring Book
DYEAR=2011
DGENRE=
TTITLE0=Nagasaki
TTITLE1=If You Can't Smile and Say Yes
TTITLE2=Sheik of Araby
TTITLE3=Avalon
TTITLE4=Limehouse Blues
TTITLE5=I Love You For Sentimental Reasons
TTITLE6=A Little Birdie Told Me
TTITLE7=Swing in G minor
TTITLE8=I'll See You in My Dreams
TTITLE9=Instead of My Missin' You
TTITLE10=Farewell My Love
TTITLE11=Smoke Rings
EXTD=
EXTT0=
EXTT1=
EXTT2=
EXTT3=
EXTT4=
EXTT5=
EXTT6=
EXTT7=
EXTT8=
EXTT9=
EXTT10=
EXTT11=
PLAYORDER=
